<svg xmlns="http://www.w3.org/2000/svg" width="125.331" height="125.685" viewBox="0 0 125.331 125.685">
    <defs>
        <filter id="Path_27469" width="125.331" height="125.685" x="0" y="0" filterUnits="userSpaceOnUse">
            <feOffset/>
            <feGaussianBlur result="blur" stdDeviation="8"/>
            <feFlood flood-opacity=".078"/>
            <feComposite in2="blur" operator="in"/>
            <feComposite in="SourceGraphic"/>
        </filter>
        <style>
            .cls-1{fill:#fff}
        </style>
    </defs>
    <g id="whatsapp_1_" data-name="whatsapp (1)" transform="translate(22.613 22.607)">
        <path id="Path_27468" d="M10.895 91.366L16.553 70.7a39.888 39.888 0 1 1 34.562 19.975H51.1a39.852 39.852 0 0 1-19.059-4.854zM33.018 78.6l1.211.718A33.107 33.107 0 0 0 51.1 83.941h.013a33.149 33.149 0 1 0-28.081-15.533l.789 1.254-3.35 12.23zm0 0" class="cls-1" data-name="Path 27468" transform="translate(-10.895 -10.895)"/>
        <g filter="url(#Path_27469)" transform="translate(-22.61 -22.61)">
            <path id="Path_27469-2" fill="#64b161" d="M19.344 97.068l5.462-19.948A38.506 38.506 0 1 1 58.172 96.4h-.017a38.5 38.5 0 0 1-18.4-4.685zm0 0" data-name="Path 27469" transform="translate(4.66 4.62)"/>
        </g>
        <g id="Group_15269" data-name="Group 15269">
            <path id="Path_27470" d="M10.895 91.366L16.553 70.7a39.888 39.888 0 1 1 34.562 19.975H51.1a39.852 39.852 0 0 1-19.059-4.854zM33.018 78.6l1.211.718A33.107 33.107 0 0 0 51.1 83.941h.013a33.149 33.149 0 1 0-28.081-15.533l.789 1.254-3.35 12.23zm0 0" class="cls-1" data-name="Path 27470" transform="translate(-10.895 -10.895)"/>
            <path id="Path_27471" fill="#fff" fill-rule="evenodd" d="M142.745 143.359c-.746-1.66-1.533-1.693-2.243-1.722-.581-.025-1.246-.024-1.91-.024a3.662 3.662 0 0 0-2.657 1.247 11.172 11.172 0 0 0-3.489 8.312c0 4.9 3.572 9.642 4.07 10.308s6.895 11.049 17.024 15.044c8.419 3.32 10.131 2.66 11.959 2.494s5.9-2.411 6.727-4.738.831-4.321.582-4.739-.914-.664-1.91-1.163-5.9-2.91-6.81-3.242-1.578-.5-2.242.5-2.573 3.241-3.155 3.905-1.163.75-2.16.251a27.252 27.252 0 0 1-8.014-4.946 30.029 30.029 0 0 1-5.545-6.9c-.581-1-.01-1.489.438-2.033a30.055 30.055 0 0 0 2.49-3.413 1.837 1.837 0 0 0-.083-1.746c-.25-.496-2.187-5.424-3.072-7.395zm0 0" data-name="Path 27471" transform="translate(-112.492 -120.155)"/>
        </g>
    </g>
</svg>
